solid OpenSCAD_Model
  facet normal -1 0 0
    outer loop
      vertex 0 10 -2.22045e-15
      vertex 0 1.75 3
      vertex 0 10 3
    endloop
  endfacet
  facet normal -1 0 0
    outer loop
      vertex 0 1.75 3
      vertex 0 -1.75 3
      vertex 0 1.75 91.9
    endloop
  endfacet
  facet normal -1 0 0
    outer loop
      vertex 0 10 -2.22045e-15
      vertex 0 -1.75 3
      vertex 0 1.75 3
    endloop
  endfacet
  facet normal -1 0 0
    outer loop
      vertex 0 -10 2.22045e-15
      vertex 0 -1.75 3
      vertex 0 10 -2.22045e-15
    endloop
  endfacet
  facet normal -1 -0 0
    outer loop
      vertex 0 -1.75 3
      vertex 0 -10 2.22045e-15
      vertex 0 -10 3
    endloop
  endfacet
  facet normal -1 -0 0
    outer loop
      vertex 0 1.75 91.9
      vertex 0 -1.75 3
      vertex 0 -1.75 91.9
    endloop
  endfacet
  facet normal 0 -1 0
    outer loop
      vertex 0 -1.75 3
      vertex 101.6 -1.75 91.9
      vertex 0 -1.75 91.9
    endloop
  endfacet
  facet normal 0 -1 -0
    outer loop
      vertex 101.6 -1.75 91.9
      vertex 0 -1.75 3
      vertex 101.6 -1.75 3
    endloop
  endfacet
  facet normal 1 0 0
    outer loop
      vertex 101.6 1.75 91.9
      vertex 101.6 -1.75 91.9
      vertex 101.6 1.75 3
    endloop
  endfacet
  facet normal 1 -0 0
    outer loop
      vertex 101.6 1.75 3
      vertex 101.6 10 -2.22045e-15
      vertex 101.6 10 3
    endloop
  endfacet
  facet normal 1 0 0
    outer loop
      vertex 101.6 -1.75 3
      vertex 101.6 1.75 3
      vertex 101.6 -1.75 91.9
    endloop
  endfacet
  facet normal 1 -0 0
    outer loop
      vertex 101.6 -1.75 3
      vertex 101.6 10 -2.22045e-15
      vertex 101.6 1.75 3
    endloop
  endfacet
  facet normal 1 0 0
    outer loop
      vertex 101.6 -10 2.22045e-15
      vertex 101.6 -1.75 3
      vertex 101.6 -10 3
    endloop
  endfacet
  facet normal 1 0 0
    outer loop
      vertex 101.6 -1.75 3
      vertex 101.6 -10 2.22045e-15
      vertex 101.6 10 -2.22045e-15
    endloop
  endfacet
  facet normal -0 0 1
    outer loop
      vertex 0 1.75 91.9
      vertex 101.6 -1.75 91.9
      vertex 101.6 1.75 91.9
    endloop
  endfacet
  facet normal 0 0 1
    outer loop
      vertex 101.6 -1.75 91.9
      vertex 0 1.75 91.9
      vertex 0 -1.75 91.9
    endloop
  endfacet
  facet normal 0 -2.22045e-16 -1
    outer loop
      vertex 0 -10 2.22045e-15
      vertex 101.6 10 -2.22045e-15
      vertex 101.6 -10 2.22045e-15
    endloop
  endfacet
  facet normal -0 -2.22045e-16 -1
    outer loop
      vertex 101.6 10 -2.22045e-15
      vertex 0 -10 2.22045e-15
      vertex 0 10 -2.22045e-15
    endloop
  endfacet
  facet normal 0 -1 0
    outer loop
      vertex 0 -10 2.22045e-15
      vertex 101.6 -10 3
      vertex 0 -10 3
    endloop
  endfacet
  facet normal 0 -1 -0
    outer loop
      vertex 101.6 -10 3
      vertex 0 -10 2.22045e-15
      vertex 101.6 -10 2.22045e-15
    endloop
  endfacet
  facet normal -0 0 1
    outer loop
      vertex 0 -1.75 3
      vertex 101.6 -10 3
      vertex 101.6 -1.75 3
    endloop
  endfacet
  facet normal 0 0 1
    outer loop
      vertex 101.6 -10 3
      vertex 0 -1.75 3
      vertex 0 -10 3
    endloop
  endfacet
  facet normal 0 1 -0
    outer loop
      vertex 101.6 1.75 3
      vertex 0 1.75 91.9
      vertex 101.6 1.75 91.9
    endloop
  endfacet
  facet normal 0 1 0
    outer loop
      vertex 0 1.75 91.9
      vertex 101.6 1.75 3
      vertex 0 1.75 3
    endloop
  endfacet
  facet normal 0 1 -0
    outer loop
      vertex 101.6 10 -2.22045e-15
      vertex 0 10 3
      vertex 101.6 10 3
    endloop
  endfacet
  facet normal 0 1 0
    outer loop
      vertex 0 10 3
      vertex 101.6 10 -2.22045e-15
      vertex 0 10 -2.22045e-15
    endloop
  endfacet
  facet normal -0 0 1
    outer loop
      vertex 0 10 3
      vertex 101.6 1.75 3
      vertex 101.6 10 3
    endloop
  endfacet
  facet normal 0 0 1
    outer loop
      vertex 101.6 1.75 3
      vertex 0 10 3
      vertex 0 1.75 3
    endloop
  endfacet
endsolid OpenSCAD_Model
